<?xml version="1.0" encoding="UTF-8"?>
<svg version="1.1" viewBox="0 0 150 150" xml:space="preserve" xmlns="http://www.w3.org/2000/svg" xmlns:cc="http://creativecommons.org/ns#" xmlns:dc="http://purl.org/dc/elements/1.1/" xmlns:rdf="http://www.w3.org/1999/02/22-rdf-syntax-ns#">
  <metadata>
    <rdf:RDF>
      <cc:Work rdf:about="lucas5zvazquez@gmail.com">
        <dc:format>image/svg+xml</dc:format>
        <dc:type rdf:resource="http://purl.org/dc/dcmitype/StillImage"/>
        <dc:title>Sample</dc:title>
      </cc:Work>
    </rdf:RDF>
  </metadata>
    <path d="m16.741 0.023678c-2.0905 0.27458-4.0408 0.44344-6.0268 1.2604-6.0251 2.4786-10.036 8.1268-10.649 14.564-0.33123 3.4806-0.065276 7.1046-0.065276 10.603v100.73c0 2.5112-0.17411 5.1004 0.12754 7.5893 0.35541 2.9325 1.4351 5.7539 3.1734 8.1473 2.6295 3.6205 6.7209 6.1646 11.152 6.8488 2.89 0.44587 5.8983 0.23828 8.817 0.23828h107.7c1.5681 0 3.1362 0.0686 4.6875-0.19196 1.832-0.30692 3.5329-0.91909 5.1897-1.7472 1.3689-0.68471 2.7048-1.6161 3.7946-2.6925 2.2623-2.236 3.9877-4.9408 4.8058-8.0357 0.59598-2.2578 0.55134-4.4939 0.55134-6.808v-107.92c0-2.4177 0.1635-4.9093-0.12779-7.3103-0.37109-3.0648-1.5352-6.0313-3.4241-8.4821-2.8756-3.7308-7.1842-6.1149-11.85-6.6805-2.6362-0.31963-5.3811-0.12753-8.0357-0.12753h-106.25c-1.1656 0-2.416-0.12809-3.5714 0.023678m48.382 46.293v18.973h25.335c3.6992 0 7.8638-0.70815 10.714 2.1763 1.9286 1.952 1.9531 4.3633 1.9531 6.9196v36.272c0 3.6741 0.54018 7.6836-2.7902 10.185-0.55915 0.4202-1.1864 0.76116-1.8415 1.0072-1.5765 0.5932-3.3147 0.41463-4.9665 0.41463h-38.114c-1.481 0-2.9778 0.11886-4.4085-0.3365-2.4855-0.79074-4.3464-3.0251-4.7748-5.5787-0.21501-1.2818-0.08008-2.6646-0.08008-3.9621 0-0.89509-0.0904-1.8454 0.01596-2.7344 0.23532-1.9676 1.2198-3.7969 2.83-4.9816 1.8515-1.3616 3.8323-1.38 6.0268-1.38h29.129v-18.973h-25.335c-3.6995 0-7.8636 0.70815-10.714-2.1763-1.929-1.952-1.9533-4.3633-1.9533-6.9196v-36.272c0-3.6741-0.54007-7.6838 2.7902-10.186 0.55932-0.42014 1.1864-0.76083 1.8415-1.0073 1.5765-0.59308 3.3148-0.41434 4.9665-0.41434h38.17c1.481 0 2.9777-0.11881 4.4085 0.33644 2.4855 0.79085 4.3465 3.0251 4.7746 5.5787 0.21093 1.2555 0.0246 2.5815 0.0246 3.8504 0 0.91847 0.0781 1.876-9e-3 2.7902-0.18917 1.9796-1.2316 3.8566-2.8365 5.0372-1.8516 1.3618-3.832 1.3802-6.0268 1.3802h-4.6317z" fill="#ffa32b"/>
    <path d="m65.123 46.317v18.973h25.335c3.6992 0 7.8638-0.70815 10.714 2.1763 1.9286 1.952 1.9531 4.3633 1.9531 6.9196v36.272c0 3.6741 0.54018 7.6836-2.7902 10.185-0.55915 0.4202-1.1864 0.76116-1.8415 1.0072-1.5765 0.5932-3.3147 0.41463-4.9665 0.41463h-38.114c-1.481 0-2.9778 0.11886-4.4085-0.3365-2.4855-0.79074-4.3464-3.0251-4.7748-5.5787-0.21501-1.2818-0.08008-2.6646-0.08008-3.9621 0-0.89509-0.0904-1.8454 0.01596-2.7344 0.23532-1.9676 1.2198-3.7969 2.83-4.9816 1.8515-1.3616 3.8323-1.38 6.0268-1.38h29.129v-18.973h-25.335c-3.6995 0-7.8636 0.70815-10.714-2.1763-1.929-1.952-1.9533-4.3633-1.9533-6.9196v-36.272c0-3.6741-0.54007-7.6838 2.7902-10.186 0.55932-0.42014 1.1864-0.76083 1.8415-1.0073 1.5765-0.59308 3.3148-0.41434 4.9665-0.41434h38.17c1.481 0 2.9777-0.11881 4.4085 0.33644 2.4855 0.79085 4.3465 3.0251 4.7746 5.5787 0.21093 1.2555 0.0246 2.5815 0.0246 3.8504 0 0.91847 0.0781 1.876-9e-3 2.7902-0.18917 1.9796-1.2316 3.8566-2.8365 5.0372-1.8516 1.3618-3.832 1.3802-6.0268 1.3802h-4.6317z" fill="#fff"/>
</svg>
